<?xml version="1.0" standalone="no"?>
<!DOCTYPE svg PUBLIC "-//W3C//DTD SVG 20010904//EN"
 "http://www.w3.org/TR/2001/REC-SVG-20010904/DTD/svg10.dtd">
<svg version="1.0" xmlns="http://www.w3.org/2000/svg"
 width="345.000000pt" height="105.000000pt" viewBox="0 0 345.000000 105.000000"
 preserveAspectRatio="xMidYMid meet">
<metadata>
Created by potrace 1.10, written by Peter Selinger 2001-2011
</metadata>
<g transform="translate(0.000000,105.000000) scale(0.100000,-0.100000)"
fill="#000000" stroke="none">
<path d="M440 1013 c0 -30 -8 -43 -46 -80 -46 -43 -80 -53 -102 -31 -16 16
-52 -17 -52 -47 0 -29 -30 -55 -63 -55 -30 0 -29 3 -31 -64 -1 -42 -6 -52 -34
-76 -34 -28 -42 -57 -17 -66 8 -4 15 -12 15 -20 0 -10 -15 -14 -55 -14 -42 0
-55 -3 -55 -15 0 -11 12 -15 49 -15 55 0 70 -12 47 -36 -28 -28 -18 -66 21
-78 23 -7 34 -44 30 -96 -2 -20 3 -26 24 -28 32 -4 60 -32 74 -75 10 -31 13
-32 57 -29 44 3 51 0 92 -40 36 -35 46 -51 48 -82 2 -22 8 -41 15 -43 9 -3 13
17 15 69 3 68 5 73 26 76 13 2 32 -4 42 -13 25 -23 44 -14 75 35 21 33 31 40
58 40 41 0 52 9 54 40 2 42 21 80 40 80 39 0 48 15 34 58 -19 56 -9 84 39 105
66 31 70 21 70 -159 0 -144 1 -153 20 -159 11 -3 29 -3 40 0 19 6 20 15 20
151 0 81 5 154 10 165 10 17 22 19 110 19 88 0 100 -2 110 -19 5 -11 10 -84
10 -165 l0 -146 25 -6 c53 -13 55 -7 55 159 0 121 3 157 14 166 19 16 300 10
381 -8 131 -29 174 -57 181 -117 10 -82 -55 -134 -169 -134 -99 0 -177 46
-196 116 -6 25 -13 29 -49 32 -40 3 -42 2 -42 -25 1 -44 50 -124 95 -153 109
-70 300 -66 382 9 52 48 65 76 66 144 1 49 -4 72 -21 99 -12 19 -19 38 -15 41
3 4 39 7 79 7 103 0 104 -1 104 -165 0 -132 0 -134 26 -154 46 -37 134 -40
148 -6 10 27 -4 42 -43 49 -33 5 -39 10 -45 37 -11 56 -7 214 6 227 13 13 85
16 112 6 12 -5 16 -21 16 -66 0 -173 93 -278 246 -278 89 0 172 46 195 108 25
67 -38 73 -92 9 l-37 -42 -72 0 c-69 0 -73 1 -100 33 -29 35 -55 106 -45 122
4 6 79 10 185 10 201 0 185 -6 192 75 3 32 27 42 74 31 l24 -6 0 -260 0 -260
45 0 45 0 0 105 c0 66 4 105 10 105 6 0 27 -7 47 -15 45 -19 110 -19 154 -1
85 35 129 114 138 246 l6 85 48 3 c32 2 47 7 47 17 0 10 -16 15 -56 17 -45 2
-59 7 -68 23 -65 117 -167 156 -265 99 -46 -26 -71 -26 -71 1 0 19 -53 21 -68
2 -6 -7 -12 -37 -14 -67 l-3 -55 -58 -3 c-52 -3 -58 -1 -66 20 -15 38 -65 86
-112 107 -100 46 -226 9 -284 -81 l-30 -48 -73 0 c-58 0 -74 3 -79 16 -9 23
10 48 38 52 34 5 43 17 35 46 -5 20 -13 26 -35 26 -34 0 -41 14 -41 76 0 38
-3 44 -25 50 -43 11 -54 -1 -57 -58 -2 -43 -7 -55 -26 -64 -13 -6 -28 -16 -34
-22 -17 -17 0 -47 33 -59 24 -9 30 -17 27 -35 -3 -23 -5 -23 -141 -26 -93 -2
-144 1 -160 10 -12 6 -40 15 -62 19 -138 26 -197 55 -209 102 -18 69 37 124
137 134 76 8 138 -21 175 -81 31 -52 43 -59 77 -46 55 21 7 113 -90 175 -45
29 -235 29 -284 0 -80 -46 -101 -82 -101 -171 0 -68 2 -74 30 -97 17 -14 30
-30 30 -36 0 -7 -36 -11 -100 -11 -87 0 -101 2 -106 18 -34 117 -150 166 -253
107 -52 -30 -68 -31 -76 -4 -5 16 -14 19 -38 17 -32 -3 -32 -4 -37 -68 l-5
-65 -36 -3 c-30 -3 -41 2 -58 24 -23 29 -28 73 -10 91 18 18 0 53 -31 59 -29
6 -46 38 -34 67 3 9 1 25 -6 36 -8 16 -19 20 -50 19 -45 -1 -62 10 -85 57 -19
41 -24 42 -55 15 -27 -23 -26 -23 -51 -10 -15 9 -19 22 -19 70 0 47 -3 60 -15
60 -11 0 -15 -11 -15 -37z m0 -323 l0 -131 -107 3 -108 3 3 45 c8 101 103 206
190 209 22 1 22 -1 22 -129z m112 116 c71 -30 126 -111 131 -193 l2 -48 -105
0 -105 0 -3 105 c-4 157 2 168 80 136z m645 -191 c13 -9 23 -24 23 -35 0 -19
-7 -20 -99 -20 -55 0 -102 4 -105 9 -7 11 22 37 64 56 38 17 81 13 117 -10z
m1454 2 c19 -12 35 -30 37 -40 3 -15 -8 -17 -112 -17 -63 0 -117 4 -120 9 -6
9 26 41 59 59 34 19 99 14 136 -11z m539 8 c31 -16 54 -48 43 -59 -3 -3 -53
-6 -110 -6 -118 0 -128 9 -61 53 47 30 85 34 128 12z m-2752 -232 c2 -129 2
-133 -18 -133 -29 0 -90 33 -124 66 -47 47 -84 151 -65 186 9 17 21 18 107 16
l97 -3 3 -132z m241 128 c17 -11 7 -92 -17 -136 -39 -70 -118 -130 -165 -123
-21 3 -22 8 -25 122 -2 78 1 123 9 132 13 16 174 20 198 5z m2026 -2 c13 -20
-7 -24 -123 -27 -115 -3 -151 5 -138 27 9 15 252 15 261 0z m543 -1 c7 -7 12
-42 12 -87 0 -85 -25 -145 -70 -169 -41 -21 -127 -9 -161 24 -28 27 -29 30
-29 130 0 73 4 104 13 107 27 11 223 7 235 -5z"/>
</g>
</svg>
